<svg id="clippy-svg" class="clippy-svg" viewBox="0 0 200 200" xmlns="http://www.w3.org/2000/svg" aria-hidden="true">
  <defs>
    <!-- v17.3: FLAT 2D body — gradient centered (not upper-left offset),
         near-solid color with only a subtle vignette at the edge for shape.
         No more "shine spot" highlight that made him look 3D. -->
    <radialGradient id="orb-body" cx="0.5" cy="0.5" r="0.55">
      <stop offset="0%"  stop-color="#4cb6ff"/>
      <stop offset="80%" stop-color="#4cb6ff"/>
      <stop offset="100%" stop-color="#2e8de0"/>
    </radialGradient>
    <radialGradient id="orb-halo" cx="0.5" cy="0.5" r="0.5">
      <stop offset="55%" stop-color="#5cb0ff" stop-opacity="0"/>
      <stop offset="78%" stop-color="#5cb0ff" stop-opacity="0.32"/>
      <stop offset="100%" stop-color="#5cb0ff" stop-opacity="0"/>
    </radialGradient>
    <radialGradient id="cheek-grad" cx="0.5" cy="0.5" r="0.5">
      <stop offset="0%"  stop-color="#ff9bbb" stop-opacity="0.9"/>
      <stop offset="100%" stop-color="#ff9bbb" stop-opacity="0"/>
    </radialGradient>
    <radialGradient id="iris-grad" cx="0.5" cy="0.40" r="0.6">
      <stop offset="0%"  stop-color="#3a5fc0"/>
      <stop offset="60%" stop-color="#0a1f6e"/>
      <stop offset="100%" stop-color="#04124a"/>
    </radialGradient>
    <filter id="glow" x="-60%" y="-60%" width="220%" height="220%">
      <feGaussianBlur stdDeviation="1.6" result="b"/>
      <feMerge>
        <feMergeNode in="b"/>
        <feMergeNode in="SourceGraphic"/>
      </feMerge>
    </filter>
    <symbol id="sym-heart" viewBox="0 0 20 18">
      <path d="M10 16 C 4 11, 0 7, 2 4 C 4 1, 8 1, 10 5 C 12 1, 16 1, 18 4 C 20 7, 16 11, 10 16 Z" fill="#ff4d8a" stroke="#c0205c" stroke-width="0.8"/>
      <ellipse cx="6.5" cy="5.5" rx="1.5" ry="1.2" fill="#ffffff" opacity="0.85"/>
    </symbol>
    <symbol id="sym-star" viewBox="0 0 22 22">
      <path d="M11 1 L13.5 8 L21 8 L15 12.5 L17 20 L11 15.5 L5 20 L7 12.5 L1 8 L8.5 8 Z" fill="#ffec70" stroke="#d4a44e" stroke-width="0.8"/>
      <circle cx="11" cy="10" r="1.5" fill="#ffffff" opacity="0.9"/>
    </symbol>
      <clipPath id="orb-clip">
      <circle cx="100" cy="100" r="58"/>
    </clipPath>
  </defs>
  <g class="cl-floats">
  <circle class="cl-halo" cx="100" cy="100" r="92" fill="url(#orb-halo)"/>

  <circle class="cl-body" cx="100" cy="100" r="58" fill="url(#orb-body)"/>
  <!-- v17.23 Back-of-head detail — only visible when sulking. Small
       dark crescent + dim glint suggests "this is the back of the orb." -->
  <g class="cl-back-tuft">
    <path d="M 78 84 Q 100 70 122 84 Q 100 78 78 84 Z" fill="#0a1840" opacity="0.55"/>
    <ellipse cx="95" cy="98" rx="3" ry="1.4" fill="#1a2860" opacity="0.6"/>
    <ellipse cx="105" cy="98" rx="3" ry="1.4" fill="#1a2860" opacity="0.6"/>
  </g>

  <g class="cl-face" clip-path="url(#orb-clip)">
    <ellipse class="cl-cheek cl-cheek-l" cx="73" cy="120" rx="11" ry="5.2" fill="url(#cheek-grad)"/>
  <ellipse class="cl-cheek cl-cheek-r" cx="127" cy="120" rx="11" ry="5.2" fill="url(#cheek-grad)"/>

  <g class="cl-eyes">
    <g class="cl-eyes-default">
      <ellipse cx="83" cy="103" rx="10" ry="13" fill="#04124a"/>
      <ellipse cx="83" cy="103" rx="9" ry="12" fill="url(#iris-grad)"/>
      <ellipse cx="83" cy="111" rx="6.5" ry="1.6" fill="#5a7fff" opacity="0.55"/>
      <circle class="cl-pupil" cx="83" cy="105" r="3.5" fill="#020a30"/>
      <ellipse class="cl-glint" cx="79.5" cy="98" rx="2.8" ry="3.5" fill="#ffffff"/>
      <circle class="cl-glint" cx="85.8" cy="105" r="1.3" fill="#ffffff" opacity="0.95"/>
      <circle class="cl-glint" cx="82" cy="112.5" r="0.9" fill="#ffffff" opacity="0.75"/>
      <ellipse cx="117" cy="103" rx="10" ry="13" fill="#04124a"/>
      <ellipse cx="117" cy="103" rx="9" ry="12" fill="url(#iris-grad)"/>
      <ellipse cx="117" cy="111" rx="6.5" ry="1.6" fill="#5a7fff" opacity="0.55"/>
      <circle class="cl-pupil" cx="117" cy="105" r="3.5" fill="#020a30"/>
      <ellipse class="cl-glint" cx="113.5" cy="98" rx="2.8" ry="3.5" fill="#ffffff"/>
      <circle class="cl-glint" cx="119.8" cy="105" r="1.3" fill="#ffffff" opacity="0.95"/>
      <circle class="cl-glint" cx="116" cy="112.5" r="0.9" fill="#ffffff" opacity="0.75"/>
    </g>
    <g class="cl-eyes-happy">
      <path d="M 73 106 Q 83 94 93 106" stroke="#04124a" stroke-width="2.8" fill="none" stroke-linecap="round"/>
      <path d="M 107 106 Q 117 94 127 106" stroke="#04124a" stroke-width="2.8" fill="none" stroke-linecap="round"/>
    </g>
    <g class="cl-eyes-shut">
      <path d="M 73 103 Q 83 109 93 103" stroke="#04124a" stroke-width="2.6" fill="none" stroke-linecap="round"/>
      <path d="M 107 103 Q 117 109 127 103" stroke="#04124a" stroke-width="2.6" fill="none" stroke-linecap="round"/>
    </g>
    <g class="cl-eyes-love">
      <use href="#sym-heart" x="73" y="93" width="20" height="18"/>
      <use href="#sym-heart" x="107" y="93" width="20" height="18"/>
    </g>
    <g class="cl-eyes-stars">
      <use href="#sym-star" x="72" y="92" width="22" height="22"/>
      <use href="#sym-star" x="106" y="92" width="22" height="22"/>
    </g>
    <g class="cl-eyes-dizzy">
      <path d="M 77 103 Q 77 96 84 96 Q 91 96 91 103 Q 91 109 85 109 Q 80 109 80 105 Q 80 102 83 102"
            fill="none" stroke="#04124a" stroke-width="1.6" stroke-linecap="round"/>
      <path d="M 111 103 Q 111 96 118 96 Q 125 96 125 103 Q 125 109 119 109 Q 114 109 114 105 Q 114 102 117 102"
            fill="none" stroke="#04124a" stroke-width="1.6" stroke-linecap="round"/>
    </g>
    <g class="cl-eyes-angry">
      <!-- v17.14 CUTE angry: still V-brows, but rounded happy-ish eyes
           below, no red pupils, no slit eyes. Just a pouty look. -->
      <path d="M 70 92 Q 80 88 92 93" stroke="#04124a" stroke-width="3" fill="none" stroke-linecap="round"/>
      <path d="M 130 92 Q 120 88 108 93" stroke="#04124a" stroke-width="3" fill="none" stroke-linecap="round"/>
      <ellipse cx="83" cy="108" rx="6" ry="5" fill="#04124a"/>
      <ellipse cx="117" cy="108" rx="6" ry="5" fill="#04124a"/>
      <ellipse class="cl-glint" cx="81" cy="106" rx="1.6" ry="2" fill="#ffffff"/>
      <ellipse class="cl-glint" cx="115" cy="106" rx="1.6" ry="2" fill="#ffffff"/>
    </g>
    <g class="cl-eyes-sad">
      <ellipse cx="83" cy="106" rx="8.5" ry="9" fill="#04124a"/>
      <ellipse cx="117" cy="106" rx="8.5" ry="9" fill="#04124a"/>
      <circle cx="83" cy="110" r="2.5" fill="#020a30"/>
      <circle cx="117" cy="110" r="2.5" fill="#020a30"/>
      <circle cx="81.5" cy="108" r="1" fill="#ffffff" opacity="0.7"/>
      <circle cx="115.5" cy="108" r="1" fill="#ffffff" opacity="0.7"/>
      <path d="M 72 92 Q 78 90 90 94" stroke="#04124a" stroke-width="2.4" fill="none" stroke-linecap="round"/>
      <path d="M 128 92 Q 122 90 110 94" stroke="#04124a" stroke-width="2.4" fill="none" stroke-linecap="round"/>
      <path d="M 91 115 Q 93 119 92 124 Q 89 122 88 117 Z" fill="#7fc8ff" opacity="0.9"/>
    </g>
    <g class="cl-eyes-sleepy">
      <path d="M 74 103 Q 83 113 92 103 L 92 105 L 74 105 Z" fill="#04124a"/>
      <path d="M 108 103 Q 117 113 126 103 L 126 105 L 108 105 Z" fill="#04124a"/>
      <ellipse cx="83" cy="108" rx="2.5" ry="1.5" fill="#020a30"/>
      <ellipse cx="117" cy="108" rx="2.5" ry="1.5" fill="#020a30"/>
      <path d="M 74 102 Q 83 99 92 102" stroke="#04124a" stroke-width="2.8" fill="none" stroke-linecap="round"/>
      <path d="M 108 102 Q 117 99 126 102" stroke="#04124a" stroke-width="2.8" fill="none" stroke-linecap="round"/>
    </g>
    <g class="cl-eyes-dots">
      <circle cx="83" cy="104" r="2.6" fill="#04124a"/>
      <circle cx="117" cy="104" r="2.6" fill="#04124a"/>
    </g>
    <g class="cl-eyes-x">
      <path d="M 75 96 L 91 110 M 91 96 L 75 110" stroke="#04124a" stroke-width="2.8" stroke-linecap="round"/>
      <path d="M 109 96 L 125 110 M 125 96 L 109 110" stroke="#04124a" stroke-width="2.8" stroke-linecap="round"/>
    </g>
    <g class="cl-eyes-wink-l">
      <path d="M 73 103 Q 83 109 93 103" stroke="#04124a" stroke-width="2.6" fill="none" stroke-linecap="round"/>
      <ellipse cx="117" cy="103" rx="10" ry="13" fill="#04124a"/>
      <ellipse cx="117" cy="103" rx="9" ry="12" fill="url(#iris-grad)"/>
      <ellipse cx="117" cy="111" rx="6.5" ry="1.6" fill="#5a7fff" opacity="0.55"/>
      <circle cx="117" cy="105" r="3.5" fill="#020a30"/>
      <ellipse cx="113.5" cy="98" rx="2.8" ry="3.5" fill="#ffffff"/>
      <circle cx="119.8" cy="105" r="1.3" fill="#ffffff"/>
    </g>
    <g class="cl-eyes-wink-r">
      <ellipse cx="83" cy="103" rx="10" ry="13" fill="#04124a"/>
      <ellipse cx="83" cy="103" rx="9" ry="12" fill="url(#iris-grad)"/>
      <ellipse cx="83" cy="111" rx="6.5" ry="1.6" fill="#5a7fff" opacity="0.55"/>
      <circle cx="83" cy="105" r="3.5" fill="#020a30"/>
      <ellipse cx="79.5" cy="98" rx="2.8" ry="3.5" fill="#ffffff"/>
      <circle cx="85.8" cy="105" r="1.3" fill="#ffffff"/>
      <path d="M 107 103 Q 117 109 127 103" stroke="#04124a" stroke-width="2.6" fill="none" stroke-linecap="round"/>
    </g>
    <g class="cl-eyes-suspicious">
      <path d="M 73 102 Q 83 105 93 102 L 93 113 Q 83 116 73 113 Z" fill="#04124a"/>
      <path d="M 107 102 Q 117 105 127 102 L 127 113 Q 117 116 107 113 Z" fill="#04124a"/>
      <circle cx="83" cy="108" r="2.6" fill="#020a30"/>
      <circle cx="117" cy="108" r="2.6" fill="#020a30"/>
      <circle cx="82" cy="107" r="1" fill="#ffffff" opacity="0.7"/>
      <circle cx="116" cy="107" r="1" fill="#ffffff" opacity="0.7"/>
    </g>
    <g class="cl-eyes-determined">
      <ellipse cx="83" cy="105" rx="9" ry="10.5" fill="#04124a"/>
      <ellipse cx="117" cy="105" rx="9" ry="10.5" fill="#04124a"/>
      <ellipse cx="83" cy="105" rx="7.5" ry="9" fill="url(#iris-grad)"/>
      <ellipse cx="117" cy="105" rx="7.5" ry="9" fill="url(#iris-grad)"/>
      <circle cx="83" cy="107" r="3.5" fill="#020a30"/>
      <circle cx="117" cy="107" r="3.5" fill="#020a30"/>
      <ellipse cx="80" cy="101" rx="2.4" ry="2.8" fill="#ffffff"/>
      <ellipse cx="114" cy="101" rx="2.4" ry="2.8" fill="#ffffff"/>
      <path d="M 73 92 L 92 95" stroke="#04124a" stroke-width="2.6" stroke-linecap="round"/>
      <path d="M 127 92 L 108 95" stroke="#04124a" stroke-width="2.6" stroke-linecap="round"/>
    </g>
    <g class="cl-eyes-sparkle">
      <text x="64" y="94" font-size="9" fill="#ffec70" font-family="serif">✦</text>
      <text x="95" y="92" font-size="6" fill="#ffec70" font-family="serif">✦</text>
      <text x="103" y="94" font-size="9" fill="#ffec70" font-family="serif">✦</text>
      <text x="130" y="92" font-size="6" fill="#ffec70" font-family="serif">✦</text>
      <text x="62" y="118" font-size="6" fill="#ffec70" font-family="serif">✦</text>
      <text x="132" y="118" font-size="6" fill="#ffec70" font-family="serif">✦</text>
      <text x="98" y="115" font-size="5" fill="#ffec70" font-family="serif">✦</text>
    </g>
    <g class="cl-eyes-embarrassed">
      <ellipse cx="83" cy="103" rx="9" ry="11" fill="#04124a"/>
      <ellipse cx="117" cy="103" rx="9" ry="11" fill="#04124a"/>
      <circle cx="86" cy="100" r="2.8" fill="#020a30"/>
      <circle cx="120" cy="100" r="2.8" fill="#020a30"/>
      <circle cx="85" cy="99" r="1" fill="#ffffff"/>
      <circle cx="119" cy="99" r="1" fill="#ffffff"/>
      <path d="M 75 116 Q 78 114 81 116 Q 84 118 87 116 Q 90 114 92 116"
            stroke="#ff6b95" stroke-width="1.2" fill="none" stroke-linecap="round" opacity="0.85"/>
      <path d="M 108 116 Q 111 114 114 116 Q 117 118 120 116 Q 123 114 125 116"
            stroke="#ff6b95" stroke-width="1.2" fill="none" stroke-linecap="round" opacity="0.85"/>
    </g>
    <g class="cl-eyes-tearful">
      <ellipse cx="83" cy="106" rx="8.5" ry="9" fill="#04124a"/>
      <ellipse cx="117" cy="106" rx="8.5" ry="9" fill="#04124a"/>
      <ellipse cx="80" cy="103" rx="2.6" ry="3" fill="#ffffff"/>
      <ellipse cx="114" cy="103" rx="2.6" ry="3" fill="#ffffff"/>
      <!-- Single shiny tear in inner corners -->
      <path d="M 91 112 Q 89 118 91 122 Q 93 118 91 112 Z" fill="#7fd2ff" opacity="0.95"/>
      <path d="M 109 112 Q 111 118 109 122 Q 107 118 109 112 Z" fill="#7fd2ff" opacity="0.95"/>
    </g>
    <g class="cl-eyes-up">
      <!-- Looking UP — pupils high in eye whites -->
      <ellipse cx="83" cy="103" rx="9" ry="12" fill="#ffffff"/>
      <ellipse cx="117" cy="103" rx="9" ry="12" fill="#ffffff"/>
      <ellipse cx="83" cy="96" rx="5.5" ry="6" fill="#04124a"/>
      <ellipse cx="117" cy="96" rx="5.5" ry="6" fill="#04124a"/>
      <circle cx="81.5" cy="94" r="1.5" fill="#ffffff"/>
      <circle cx="115.5" cy="94" r="1.5" fill="#ffffff"/>
    </g>
    <g class="cl-eyes-down">
      <!-- Looking DOWN — pupils low in eye whites -->
      <ellipse cx="83" cy="103" rx="9" ry="12" fill="#ffffff"/>
      <ellipse cx="117" cy="103" rx="9" ry="12" fill="#ffffff"/>
      <ellipse cx="83" cy="110" rx="5.5" ry="6" fill="#04124a"/>
      <ellipse cx="117" cy="110" rx="5.5" ry="6" fill="#04124a"/>
      <circle cx="81.5" cy="108" r="1.2" fill="#ffffff" opacity="0.85"/>
      <circle cx="115.5" cy="108" r="1.2" fill="#ffffff" opacity="0.85"/>
      <!-- Slight downturn brows -->
      <path d="M 73 92 Q 80 95 92 92" stroke="#04124a" stroke-width="2" fill="none" stroke-linecap="round" opacity="0.6"/>
      <path d="M 127 92 Q 120 95 108 92" stroke="#04124a" stroke-width="2" fill="none" stroke-linecap="round" opacity="0.6"/>
    </g>
    <g class="cl-eyes-squint">
      <!-- >< style squinted shut (manga laughing / wincing) -->
      <path d="M 72 100 L 82 108 L 92 100" stroke="#04124a" stroke-width="3.4" fill="none" stroke-linecap="round" stroke-linejoin="round"/>
      <path d="M 108 100 L 118 108 L 128 100" stroke="#04124a" stroke-width="3.4" fill="none" stroke-linecap="round" stroke-linejoin="round"/>
    </g>
    <g class="cl-eyes-wide-shock">
      <!-- Big surprised — large whites, small pupils -->
      <ellipse cx="83" cy="103" rx="11" ry="14" fill="#ffffff" stroke="#04124a" stroke-width="1.4"/>
      <ellipse cx="117" cy="103" rx="11" ry="14" fill="#ffffff" stroke="#04124a" stroke-width="1.4"/>
      <circle cx="83" cy="103" r="3.5" fill="#04124a"/>
      <circle cx="117" cy="103" r="3.5" fill="#04124a"/>
      <circle cx="84.8" cy="101" r="1.1" fill="#ffffff"/>
      <circle cx="118.8" cy="101" r="1.1" fill="#ffffff"/>
    </g>
    <g class="cl-eyes-glance">
      <!-- Looking aside, slightly down — bashful/coy -->
      <ellipse cx="83" cy="103" rx="9" ry="12" fill="#04124a"/>
      <ellipse cx="117" cy="103" rx="9" ry="12" fill="#04124a"/>
      <ellipse cx="86" cy="108" rx="3" ry="3.5" fill="#020a30"/>
      <ellipse cx="120" cy="108" rx="3" ry="3.5" fill="#020a30"/>
      <ellipse cx="85" cy="107" rx="1.4" ry="1.8" fill="#ffffff"/>
      <ellipse cx="119" cy="107" rx="1.4" ry="1.8" fill="#ffffff"/>
    </g>
    <g class="cl-eyes-disgusted">
      <!-- Half-lidded skeptical/grossed-out -->
      <path d="M 73 102 Q 83 100 92 102" stroke="#04124a" stroke-width="2.6" fill="none" stroke-linecap="round"/>
      <path d="M 108 102 Q 117 100 127 102" stroke="#04124a" stroke-width="2.6" fill="none" stroke-linecap="round"/>
      <ellipse cx="83" cy="106" rx="3" ry="2.2" fill="#04124a"/>
      <ellipse cx="117" cy="106" rx="3" ry="2.2" fill="#04124a"/>
      <path d="M 75 92 Q 80 89 90 91" stroke="#04124a" stroke-width="2" fill="none" stroke-linecap="round"/>
      <path d="M 125 92 Q 120 89 110 91" stroke="#04124a" stroke-width="2" fill="none" stroke-linecap="round"/>
    </g>
    <g class="cl-eyes-genius">
      <!-- Focused intelligent eyes with cyan glow rings (parts/engineering) -->
      <ellipse cx="83" cy="103" rx="9.5" ry="11.5" fill="#04124a"/>
      <ellipse cx="117" cy="103" rx="9.5" ry="11.5" fill="#04124a"/>
      <ellipse cx="83" cy="103" rx="8" ry="10" fill="url(#iris-grad)"/>
      <ellipse cx="117" cy="103" rx="8" ry="10" fill="url(#iris-grad)"/>
      <circle cx="83" cy="105" r="3.5" fill="#020a30"/>
      <circle cx="117" cy="105" r="3.5" fill="#020a30"/>
      <ellipse cx="80" cy="99" rx="2.4" ry="3" fill="#ffffff"/>
      <ellipse cx="114" cy="99" rx="2.4" ry="3" fill="#ffffff"/>
      <circle cx="83" cy="103" r="14" fill="none" stroke="#7df0ff" stroke-width="0.9" opacity="0.55"/>
      <circle cx="117" cy="103" r="14" fill="none" stroke="#7df0ff" stroke-width="0.9" opacity="0.55"/>
    </g>
    <g class="cl-eyes-studious">
      <!-- Round focused eyes wearing reading glasses (education mode) -->
      <ellipse cx="83" cy="104" rx="9" ry="10" fill="#04124a"/>
      <ellipse cx="117" cy="104" rx="9" ry="10" fill="#04124a"/>
      <circle cx="83" cy="105" r="3.2" fill="#020a30"/>
      <circle cx="117" cy="105" r="3.2" fill="#020a30"/>
      <ellipse cx="80.5" cy="101" rx="2" ry="2.4" fill="#ffffff"/>
      <ellipse cx="114.5" cy="101" rx="2" ry="2.4" fill="#ffffff"/>
      <circle cx="83" cy="104" r="13" fill="none" stroke="#04124a" stroke-width="1.6" opacity="0.85"/>
      <circle cx="117" cy="104" r="13" fill="none" stroke="#04124a" stroke-width="1.6" opacity="0.85"/>
      <line x1="96" y1="104" x2="104" y2="104" stroke="#04124a" stroke-width="1.6"/>
    </g>
    <g class="cl-eyes-condescend">
      <!-- Half-lidded SUPERIOR look. Raised inner brows = haughty.
           Smug little eyes peeking through narrow slits. -->
      <path d="M 70 100 Q 82 102 92 100" stroke="#04124a" stroke-width="2.8" fill="none" stroke-linecap="round"/>
      <path d="M 108 100 Q 118 102 130 100" stroke="#04124a" stroke-width="2.8" fill="none" stroke-linecap="round"/>
      <ellipse cx="83" cy="106" rx="3.4" ry="2.4" fill="#04124a"/>
      <ellipse cx="117" cy="106" rx="3.4" ry="2.4" fill="#04124a"/>
      <circle cx="82" cy="105.5" r="1" fill="#ffffff"/>
      <circle cx="116" cy="105.5" r="1" fill="#ffffff"/>
      <!-- Smug raised-inner-brow line -->
      <path d="M 86 89 Q 92 92 96 91" stroke="#04124a" stroke-width="2" fill="none" stroke-linecap="round"/>
      <path d="M 114 89 Q 108 92 104 91" stroke="#04124a" stroke-width="2" fill="none" stroke-linecap="round"/>
    </g>

  </g>

  <g class="cl-mouth">
    <path class="cl-mouth-smile" d="M 92 130 Q 100 137 108 130" stroke="#04124a" stroke-width="2.4" fill="none" stroke-linecap="round"/>
    <g class="cl-mouth-bigsmile">
      <path d="M 87 127 Q 100 144 113 127 Q 100 136 87 127 Z" fill="#04124a"/>
      <path d="M 91 131 Q 100 139 109 131" fill="#ff6e9e" opacity="0.7"/>
    </g>
    <g class="cl-mouth-tongue">
      <path d="M 90 128 Q 100 140 110 128 Q 100 133 90 128 Z" fill="#04124a"/>
      <path d="M 96 134 Q 100 144 105 138 Q 105 132 100 132 Q 96 132 96 134 Z" fill="#ff5577"/>
    </g>
    <ellipse class="cl-mouth-o" cx="100" cy="132" rx="2.8" ry="3.8" fill="#04124a"/>
    <path class="cl-mouth-wavy" d="M 90 132 Q 94 128 98 132 Q 102 136 106 132 Q 110 128 114 132"
          stroke="#04124a" stroke-width="2.2" fill="none" stroke-linecap="round"/>
    <g class="cl-mouth-fangs">
      <!-- v17.14 CUTE huff: small pouty mouth, no fangs -->
      <path d="M 93 134 Q 100 130 107 134" stroke="#04124a" stroke-width="2.4" fill="none" stroke-linecap="round"/>
    </g>
    <line class="cl-mouth-flat" x1="92" y1="132" x2="108" y2="132" stroke="#04124a" stroke-width="2.4" stroke-linecap="round"/>
    <path class="cl-mouth-frown" d="M 92 134 Q 100 128 108 134" stroke="#04124a" stroke-width="2.4" fill="none" stroke-linecap="round"/>
    <path class="cl-mouth-cat" d="M 92 130 Q 96 134 100 130 Q 104 134 108 130" stroke="#04124a" stroke-width="2.2" fill="none" stroke-linecap="round"/>
    <ellipse class="cl-mouth-kiss" cx="100" cy="132" rx="3.2" ry="2.4" fill="#ff5577"/>
    <ellipse class="cl-mouth-pout" cx="100" cy="132" rx="2.4" ry="3" fill="#ff6e9e"/>
    <text class="cl-mouth-star" x="92" y="139" font-family="sans-serif" font-size="14" font-weight="800" fill="#ff5577">✦</text>
    <path class="cl-mouth-laugh" d="M 86 128 Q 100 148 114 128 Q 100 134 86 128 Z" fill="#04124a"/>
    <rect class="cl-mouth-tape" x="92" y="130" width="16" height="5" rx="2.5" fill="#ffb6c8" stroke="#04124a" stroke-width="0.8"/>
    <g class="cl-mouth-bunny">
      <path d="M 90 130 Q 100 138 110 130" stroke="#04124a" stroke-width="2.2" fill="none" stroke-linecap="round"/>
      <rect x="96" y="130" width="3.5" height="4.5" rx="0.6" fill="#ffffff" stroke="#04124a" stroke-width="0.6"/>
      <rect x="100.5" y="130" width="3.5" height="4.5" rx="0.6" fill="#ffffff" stroke="#04124a" stroke-width="0.6"/>
    </g>
    <path class="cl-mouth-triangle" d="M 94 130 L 100 138 L 106 130 Z" fill="#04124a"/>

  </g>
  </g>

  <g class="cl-zzz">
    <text x="146" y="50" font-family="serif" font-size="14" font-weight="700" fill="#7df0ff" opacity="0.85">z</text>
    <text x="156" y="38" font-family="serif" font-size="16" font-weight="700" fill="#9bf2ff" opacity="0.85">z</text>
    <text x="168" y="24" font-family="serif" font-size="18" font-weight="700" fill="#bef5ff" opacity="0.85">Z</text>
  </g>

  <!-- v17.4: NODES render LAST so they orbit OVER the character.
       Bigger (r=6-8), softer pastel colors, no glow filter (flat 2D).
       Mix of outer-ring positions (orbit around, never block face) and
       inner-ring positions (orbit visibly over the body). -->
  <g class="cl-nodes">
    <circle class="cl-node cl-node-1" cx="172" cy="62"  r="7"   fill="#9adff5"/>
    <circle class="cl-node cl-node-2" cx="178" cy="130" r="6.5" fill="#cbb0f5"/>
    <circle class="cl-node cl-node-3" cx="128" cy="178" r="6"   fill="#9adff5"/>
    <circle class="cl-node cl-node-4" cx="28"  cy="158" r="7"   fill="#9adff5"/>
    <circle class="cl-node cl-node-5" cx="32"  cy="65"  r="6.5" fill="#cbb0f5"/>
    <circle class="cl-node cl-node-6" cx="135" cy="58"  r="5.5" fill="#9adff5"/>
    <circle class="cl-node cl-node-7" cx="62"  cy="138" r="5.5" fill="#cbb0f5"/>
  </g>
  </g>

  <!-- v17.14 EMOTION OVERLAYS — opacity 0 by default, mood class turns on -->
  <g class="cl-sweat">
    <path d="M 142 78 Q 138 86 142 92 Q 146 86 142 78 Z" fill="#7fcfff" opacity="0.92"/>
    <ellipse cx="142" cy="88" rx="1.6" ry="1.2" fill="#ffffff" opacity="0.85"/>
  </g>
  <g class="cl-music">
    <text x="148" y="58" font-family="serif" font-size="22" font-weight="700" fill="#ff8acc">♪</text>
    <text x="160" y="44" font-family="serif" font-size="18" font-weight="700" fill="#9bc5ff">♫</text>
  </g>
  <g class="cl-anger-pop">
    <!-- Manga-style cute anger mark -->
    <path d="M 140 38 L 148 32 L 156 38 M 144 42 L 152 36 L 160 42 M 142 46 L 150 40 M 158 30 L 164 36"
          stroke="#ff5577" stroke-width="2.2" fill="none" stroke-linecap="round"/>
  </g>
  <g class="cl-question">
    <text x="150" y="48" font-family="sans-serif" font-size="32" font-weight="800" fill="#7df0ff">?</text>
  </g>
  <g class="cl-tear">
    <!-- Single big sparkle tear -->
    <path d="M 85 118 Q 80 130 85 138 Q 90 130 85 118 Z" fill="#7fd2ff" opacity="0.95"/>
    <ellipse cx="83" cy="128" rx="1.4" ry="1.8" fill="#ffffff" opacity="0.9"/>
  </g>
  <g class="cl-tears-stream">
    <!-- Multiple streaming tears -->
    <path d="M 80 116 Q 76 128 78 140" stroke="#7fd2ff" stroke-width="3.4" fill="none" stroke-linecap="round" opacity="0.9"/>
    <path d="M 120 116 Q 124 128 122 140" stroke="#7fd2ff" stroke-width="3.4" fill="none" stroke-linecap="round" opacity="0.9"/>
    <circle cx="77" cy="142" r="2.2" fill="#7fd2ff" opacity="0.9"/>
    <circle cx="123" cy="142" r="2.2" fill="#7fd2ff" opacity="0.9"/>
  </g>
  <g class="cl-drool">
    <!-- Saliva drip from mouth corner -->
    <path d="M 110 138 Q 112 146 111 152" stroke="#9adff5" stroke-width="2.4" fill="none" stroke-linecap="round" opacity="0.85"/>
    <circle cx="111" cy="153" r="1.8" fill="#9adff5" opacity="0.9"/>
  </g>
  <g class="cl-red-nose">
    <!-- Drunk/sick clown-style round red nose -->
    <circle cx="100" cy="120" r="5.5" fill="#ff5577" opacity="0.85"/>
    <ellipse cx="98" cy="118" rx="1.6" ry="2" fill="#ffaac0" opacity="0.7"/>
  </g>
  <g class="cl-heart-blush">
    <!-- Heart-shaped cheeks instead of regular -->
    <path d="M 65 118 Q 60 113 65 110 Q 70 113 65 118 Z" fill="#ff80a0"/>
    <path d="M 70 122 Q 65 117 70 114 Q 75 117 70 122 Z" fill="#ff80a0"/>
    <path d="M 135 118 Q 140 113 135 110 Q 130 113 135 118 Z" fill="#ff80a0"/>
    <path d="M 130 122 Q 135 117 130 114 Q 125 117 130 122 Z" fill="#ff80a0"/>
  </g>

  <!-- v17.25 COSTUMES (head-worn) — all hidden by default, shown via mood class -->
  <g class="cl-costume-laurel">
    <!-- Roman laurel crown of victory — green leaves wrapping the head -->
    <path d="M 56 62 Q 50 50 58 42 Q 64 48 62 58 Z" fill="#4a7c3a" stroke="#2d5020" stroke-width="0.8"/>
    <path d="M 68 50 Q 64 38 72 32 Q 78 40 74 50 Z" fill="#588a45" stroke="#2d5020" stroke-width="0.8"/>
    <path d="M 82 42 Q 80 30 90 26 Q 94 36 88 44 Z" fill="#4a7c3a" stroke="#2d5020" stroke-width="0.8"/>
    <path d="M 118 42 Q 120 30 110 26 Q 106 36 112 44 Z" fill="#4a7c3a" stroke="#2d5020" stroke-width="0.8"/>
    <path d="M 132 50 Q 136 38 128 32 Q 122 40 126 50 Z" fill="#588a45" stroke="#2d5020" stroke-width="0.8"/>
    <path d="M 144 62 Q 150 50 142 42 Q 136 48 138 58 Z" fill="#4a7c3a" stroke="#2d5020" stroke-width="0.8"/>
    <!-- Tiny gold berries -->
    <circle cx="76" cy="42" r="2" fill="#d4a44e"/>
    <circle cx="100" cy="32" r="2.5" fill="#d4a44e"/>
    <circle cx="124" cy="42" r="2" fill="#d4a44e"/>
  </g>
  <g class="cl-costume-helmet">
    <!-- Roman gladiator/legionary helmet (galea) — bronze with red crest -->
    <path d="M 50 70 Q 50 36 100 30 Q 150 36 150 70 L 144 76 Q 100 60 56 76 Z" fill="#a87832" stroke="#5a4018" stroke-width="1.2"/>
    <!-- Bronze brow band -->
    <rect x="56" y="70" width="88" height="8" fill="#7a5818" stroke="#5a4018" stroke-width="0.8"/>
    <!-- Red horsehair crest on top -->
    <path d="M 92 30 Q 100 12 108 30 L 106 36 Q 100 26 94 36 Z" fill="#c62a4a" stroke="#7a1828" stroke-width="0.8"/>
    <path d="M 90 26 L 110 26" stroke="#c62a4a" stroke-width="3"/>
    <!-- Side cheek-guards -->
    <path d="M 54 70 Q 50 86 60 90 L 64 76 Z" fill="#a87832" stroke="#5a4018" stroke-width="0.8"/>
    <path d="M 146 70 Q 150 86 140 90 L 136 76 Z" fill="#a87832" stroke="#5a4018" stroke-width="0.8"/>
    <!-- Bronze rivets -->
    <circle cx="64" cy="74" r="1.5" fill="#5a4018"/>
    <circle cx="100" cy="68" r="1.5" fill="#5a4018"/>
    <circle cx="136" cy="74" r="1.5" fill="#5a4018"/>
  </g>
  <g class="cl-costume-party-hat">
    <!-- Cone party hat with pom-pom -->
    <path d="M 80 60 L 100 18 L 120 60 Z" fill="#ff5577" stroke="#1a1a1a" stroke-width="1.4"/>
    <!-- Zigzag pattern -->
    <path d="M 85 50 L 92 46 L 99 50 L 106 46 L 113 50 L 115 54 L 109 56 L 102 52 L 95 56 L 88 52 L 86 56 Z" fill="#ffd870" opacity="0.95"/>
    <!-- Pom-pom on top -->
    <circle cx="100" cy="18" r="6" fill="#fffef6" stroke="#1a1a1a" stroke-width="1.2"/>
    <circle cx="98" cy="16" r="2" fill="#ffffff"/>
    <circle cx="102" cy="20" r="2" fill="#ffffff"/>
    <!-- Hat band -->
    <rect x="80" y="56" width="40" height="4" fill="#7df0ff" stroke="#1a1a1a" stroke-width="0.6"/>
  </g>
  <g class="cl-costume-scholar-cap">
    <!-- Scholar's mortarboard with tassel -->
    <rect x="62" y="55" width="76" height="8" fill="#1a1530" stroke="#000" stroke-width="0.8"/>
    <polygon points="55,55 100,40 145,55 100,60" fill="#1a1530" stroke="#000" stroke-width="1.2"/>
    <!-- Tassel -->
    <line x1="145" y1="48" x2="158" y2="78" stroke="#d4a44e" stroke-width="1.4"/>
    <circle cx="158" cy="78" r="4" fill="#d4a44e"/>
    <path d="M 156 80 L 156 86 M 158 80 L 158 87 M 160 80 L 160 86" stroke="#a07820" stroke-width="0.8"/>
  </g>

  <!-- v17.25 PROPS — held items. Positioned off to the side of the orb. -->
  <g class="cl-prop-broom">
    <!-- Roman broom (modeled like a hand-broom). Stick + straw head. -->
    <!-- Stick — angled down-right -->
    <line x1="156" y1="92" x2="184" y2="156" stroke="#6b4f1f" stroke-width="3.2" stroke-linecap="round"/>
    <!-- Straw bundle -->
    <path d="M 178 142 L 198 138 L 200 156 L 180 162 Z" fill="#d4a44e" stroke="#7a5828" stroke-width="1"/>
    <!-- Straw lines -->
    <line x1="182" y1="142" x2="186" y2="160" stroke="#7a5828" stroke-width="0.6"/>
    <line x1="186" y1="141" x2="190" y2="160" stroke="#7a5828" stroke-width="0.6"/>
    <line x1="190" y1="140" x2="194" y2="159" stroke="#7a5828" stroke-width="0.6"/>
    <line x1="194" y1="139" x2="197" y2="158" stroke="#7a5828" stroke-width="0.6"/>
    <!-- Binding rope -->
    <ellipse cx="178" cy="144" rx="2.5" ry="6" fill="#3a2818"/>
  </g>
  <g class="cl-prop-book">
    <!-- Roman scroll-book hybrid (codex). Open, two pages. -->
    <!-- Page backings -->
    <path d="M 40 124 L 100 122 L 100 160 L 38 162 Z" fill="#f5ecd5" stroke="#7a6028" stroke-width="1.2"/>
    <path d="M 100 122 L 160 124 L 162 162 L 100 160 Z" fill="#f5ecd5" stroke="#7a6028" stroke-width="1.2"/>
    <!-- Center spine shadow -->
    <line x1="100" y1="122" x2="100" y2="160" stroke="#7a6028" stroke-width="1"/>
    <!-- Text lines (Lorem-style scribbles) -->
    <line x1="48" y1="132" x2="92" y2="131" stroke="#3a2818" stroke-width="0.9"/>
    <line x1="48" y1="138" x2="88" y2="137" stroke="#3a2818" stroke-width="0.9"/>
    <line x1="48" y1="144" x2="90" y2="143" stroke="#3a2818" stroke-width="0.9"/>
    <line x1="48" y1="150" x2="84" y2="149" stroke="#3a2818" stroke-width="0.9"/>
    <line x1="108" y1="132" x2="154" y2="133" stroke="#3a2818" stroke-width="0.9"/>
    <line x1="108" y1="138" x2="152" y2="139" stroke="#3a2818" stroke-width="0.9"/>
    <line x1="108" y1="144" x2="150" y2="145" stroke="#3a2818" stroke-width="0.9"/>
    <line x1="108" y1="150" x2="148" y2="151" stroke="#3a2818" stroke-width="0.9"/>
    <!-- Decorative initial capital -->
    <text x="50" y="129" font-family="serif" font-size="6" fill="#c62a4a" font-weight="bold">A</text>
    <text x="108" y="129" font-family="serif" font-size="6" fill="#c62a4a" font-weight="bold">B</text>
  </g>
  <g class="cl-prop-scroll">
    <!-- Unrolled scroll diagonally -->
    <!-- Rolled ends -->
    <ellipse cx="42" cy="140" rx="6" ry="14" fill="#d4b87a" stroke="#7a6028" stroke-width="1.2"/>
    <ellipse cx="162" cy="140" rx="6" ry="14" fill="#d4b87a" stroke="#7a6028" stroke-width="1.2"/>
    <!-- Parchment middle -->
    <rect x="42" y="126" width="120" height="28" fill="#f5ecd5" stroke="#7a6028" stroke-width="1"/>
    <!-- Text scribbles -->
    <line x1="52" y1="134" x2="152" y2="134" stroke="#3a2818" stroke-width="0.8"/>
    <line x1="52" y1="140" x2="148" y2="140" stroke="#3a2818" stroke-width="0.8"/>
    <line x1="52" y1="146" x2="150" y2="146" stroke="#3a2818" stroke-width="0.8"/>
    <!-- Red seal -->
    <circle cx="142" cy="148" r="3" fill="#c62a4a"/>
  </g>

  <!-- v17.27 CONQUEROR HATS — 5 new alter-ego head items.
       Hidden by default; shown via shell class `wear-{name}`. -->

  <g class="cl-costume-bicorne">
    <!-- Napoleon's bicorne — sideways crescent shape, dark navy, gold trim -->
    <!-- Lower brim/band -->
    <path d="M 36 64 Q 100 50 164 64 L 158 72 Q 100 60 42 72 Z"
          fill="#1a1f3a" stroke="#000" stroke-width="1.2"/>
    <!-- Upper crescent (the iconic bicorne shape) -->
    <path d="M 32 58 Q 100 16 168 58 Q 158 36 100 30 Q 42 36 32 58 Z"
          fill="#1a1f3a" stroke="#000" stroke-width="1.4"/>
    <!-- Inner highlight -->
    <path d="M 40 56 Q 100 24 160 56 Q 154 42 100 38 Q 46 42 40 56 Z"
          fill="#2a3050" opacity="0.6"/>
    <!-- Gold trim along brim -->
    <path d="M 36 64 Q 100 50 164 64" stroke="#d4a44e" stroke-width="1.6" fill="none"/>
    <!-- Cockade (tricolor rosette) on left peak -->
    <circle cx="46" cy="48" r="5" fill="#1a4ea0"/>
    <circle cx="46" cy="48" r="3.5" fill="#fffef6"/>
    <circle cx="46" cy="48" r="2" fill="#c62a4a"/>
  </g>

  <g class="cl-costume-mongol">
    <!-- Genghis Khan Mongol warrior cap — tall pointed with fur trim -->
    <!-- Body of cap -->
    <path d="M 60 64 L 64 28 Q 100 16 136 28 L 140 64 Z"
          fill="#5a3818" stroke="#2a1808" stroke-width="1.4"/>
    <!-- Pointed top with finial -->
    <path d="M 100 16 L 96 8 L 100 4 L 104 8 Z" fill="#c0a040" stroke="#7a5818" stroke-width="0.8"/>
    <!-- Fur trim around base -->
    <path d="M 56 60 Q 100 78 144 60 L 142 70 Q 100 86 58 70 Z"
          fill="#fffef6" stroke="#888" stroke-width="0.6"/>
    <!-- Fur texture lines -->
    <line x1="62" y1="64" x2="64" y2="74" stroke="#aaa" stroke-width="0.8"/>
    <line x1="78" y1="68" x2="80" y2="78" stroke="#aaa" stroke-width="0.8"/>
    <line x1="100" y1="70" x2="100" y2="80" stroke="#aaa" stroke-width="0.8"/>
    <line x1="120" y1="68" x2="118" y2="78" stroke="#aaa" stroke-width="0.8"/>
    <line x1="138" y1="64" x2="134" y2="74" stroke="#aaa" stroke-width="0.8"/>
    <!-- Central gold medallion -->
    <circle cx="100" cy="46" r="6" fill="#d4a44e" stroke="#7a5818" stroke-width="1"/>
    <circle cx="100" cy="46" r="2.5" fill="#2a1808"/>
  </g>

  <g class="cl-costume-macedonian">
    <!-- Alexander's Macedonian/Greek helm with side plumes -->
    <!-- Helmet body — rounder than Roman -->
    <path d="M 52 70 Q 50 32 100 26 Q 150 32 148 70 L 142 76 Q 100 60 58 76 Z"
          fill="#c0a040" stroke="#5a4018" stroke-width="1.2"/>
    <!-- Bronze ridge along center -->
    <line x1="100" y1="26" x2="100" y2="64" stroke="#7a5818" stroke-width="2"/>
    <!-- Nose-guard (Greek style) -->
    <path d="M 96 60 L 96 78 L 100 84 L 104 78 L 104 60 Z" fill="#a08020" stroke="#5a4018" stroke-width="0.8"/>
    <!-- Side plumes — white/red horsehair -->
    <path d="M 50 50 Q 30 40 24 60 Q 28 58 36 56 Q 44 58 50 56 Z" fill="#fffef6" stroke="#888" stroke-width="0.6"/>
    <path d="M 150 50 Q 170 40 176 60 Q 172 58 164 56 Q 156 58 150 56 Z" fill="#fffef6" stroke="#888" stroke-width="0.6"/>
    <!-- Plume bases (red base) -->
    <ellipse cx="50" cy="50" rx="4" ry="3" fill="#c62a4a"/>
    <ellipse cx="150" cy="50" rx="4" ry="3" fill="#c62a4a"/>
    <!-- Decorative bronze nubs -->
    <circle cx="68" cy="68" r="1.4" fill="#7a5818"/>
    <circle cx="132" cy="68" r="1.4" fill="#7a5818"/>
  </g>

  <g class="cl-costume-carthaginian">
    <!-- Hannibal's Carthaginian helm — Phrygian-style, pointed top, cheek-guards -->
    <!-- Main body with forward-curving point -->
    <path d="M 56 70 Q 54 38 100 30 Q 124 32 130 26 Q 136 32 140 50 Q 144 64 144 70 L 138 76 Q 100 60 60 76 Z"
          fill="#7a5028" stroke="#3a2010" stroke-width="1.2"/>
    <!-- Forward-curve highlight -->
    <path d="M 126 28 Q 142 36 144 50" stroke="#c0a040" stroke-width="2.4" fill="none"/>
    <!-- Brow band -->
    <rect x="60" y="68" width="80" height="6" fill="#5a3818" stroke="#3a2010" stroke-width="0.6"/>
    <!-- Cheek guards (longer than Roman) -->
    <path d="M 58 70 Q 52 92 64 96 L 70 76 Z" fill="#7a5028" stroke="#3a2010" stroke-width="0.8"/>
    <path d="M 142 70 Q 148 92 136 96 L 130 76 Z" fill="#7a5028" stroke="#3a2010" stroke-width="0.8"/>
    <!-- Bronze ornament (Tanit symbol stylized) -->
    <circle cx="100" cy="50" r="5" fill="#c0a040" stroke="#3a2010" stroke-width="0.8"/>
    <rect x="96.5" y="45" width="7" height="2" fill="#c0a040"/>
    <!-- Small purple/violet feather (Carthaginian color) -->
    <path d="M 86 32 Q 76 22 78 14 Q 84 18 88 28 Z" fill="#5a2860" stroke="#2a1030" stroke-width="0.6"/>
  </g>

  <g class="cl-costume-nemes">
    <!-- Cleopatra's nemes — Egyptian striped headdress with uraeus snake -->
    <!-- Outer headdress shape (drapes down sides) -->
    <path d="M 44 60 Q 50 30 100 22 Q 150 30 156 60 L 150 96 Q 146 100 138 98 L 134 80 L 128 96 Q 100 94 72 96 L 66 80 L 62 98 Q 54 100 50 96 Z"
          fill="#d4a44e" stroke="#5a4018" stroke-width="1.4"/>
    <!-- Iconic blue/gold stripes on the side flaps -->
    <line x1="52" y1="66" x2="56" y2="98" stroke="#1a3e7a" stroke-width="3"/>
    <line x1="58" y1="62" x2="62" y2="98" stroke="#d4a44e" stroke-width="3"/>
    <line x1="64" y1="60" x2="68" y2="98" stroke="#1a3e7a" stroke-width="3"/>
    <line x1="132" y1="60" x2="136" y2="98" stroke="#1a3e7a" stroke-width="3"/>
    <line x1="138" y1="62" x2="142" y2="98" stroke="#d4a44e" stroke-width="3"/>
    <line x1="144" y1="66" x2="148" y2="98" stroke="#1a3e7a" stroke-width="3"/>
    <!-- Center blue band on forehead -->
    <path d="M 60 60 Q 100 50 140 60" stroke="#1a3e7a" stroke-width="3" fill="none"/>
    <!-- URAEUS — cobra on the brow -->
    <!-- Cobra hood -->
    <path d="M 94 42 Q 100 30 106 42 Q 104 36 100 34 Q 96 36 94 42 Z" fill="#1a8050" stroke="#0a4020" stroke-width="0.8"/>
    <!-- Cobra body curling down to brow -->
    <path d="M 100 42 Q 96 50 100 56" stroke="#1a8050" stroke-width="3" fill="none" stroke-linecap="round"/>
    <!-- Cobra eyes -->
    <circle cx="97" cy="38" r="0.8" fill="#c62a4a"/>
    <circle cx="103" cy="38" r="0.8" fill="#c62a4a"/>
    <!-- Gold uraeus base -->
    <ellipse cx="100" cy="56" rx="3" ry="1.4" fill="#d4a44e" stroke="#5a4018" stroke-width="0.6"/>
  </g>

</svg>
